<svg xmlns="http://www.w3.org/2000/svg" viewBox="0 0 200 31"><g fill="none"><path fill="#B2B2B2" d="M50.032 30.712v-6.104h2.043l1.167 3.735 1.176-3.735h2.035v6.104h-1.425v-4.035l-1.262 4.035H52.71l-1.262-4.035v4.035h-1.416zm10.175-5.323c.602-.592 1.357-.893 2.224-.893.815 0 1.588.318 2.18.902.619.61.945 1.39.945 2.223 0 .876-.31 1.657-.884 2.25-.588.612-1.401.956-2.25.952-.9 0-1.674-.326-2.274-.961-.576-.61-.868-1.365-.868-2.266 0-.842.326-1.615.927-2.207zm2.215 3.923c.876 0 1.588-.703 1.588-1.7 0-.892-.712-1.605-1.571-1.605-.91 0-1.622.713-1.622 1.606 0 .961.764 1.7 1.605 1.7zm6.51 1.4v-4.688H67.8v-1.416h3.786v1.416h-1.16v4.687h-1.493zm5.779-5.323c.601-.592 1.356-.893 2.224-.893.815 0 1.588.318 2.18.902.618.61.944 1.39.944 2.223 0 .876-.309 1.657-.884 2.25-.587.612-1.4.956-2.249.952-.901 0-1.674-.326-2.275-.961-.575-.61-.867-1.365-.867-2.266 0-.842.326-1.615.927-2.207zm2.215 3.923c.876 0 1.588-.703 1.588-1.7 0-.892-.712-1.605-1.57-1.605-.911 0-1.623.713-1.623 1.606 0 .961.764 1.7 1.605 1.7zm5.952 1.4v-6.104h2.026c.644 0 1.133.043 1.545.335.54.378.824.953.824 1.709 0 .987-.515 1.725-1.382 1.965l1.493 2.095H85.54l-1.168-1.966v1.966h-1.493zm1.785-3.288c.739 0 1.1-.189 1.1-.739 0-.506-.318-.712-.98-.712h-.411v1.45h.291zm8.518.953h-1.528v2.335H90.16v-6.104h1.493v2.318h1.528v-2.318h1.503v6.104H93.18v-2.335zm5.257-2.988c.601-.592 1.356-.893 2.223-.893.816 0 1.589.318 2.18.902.619.61.945 1.39.945 2.223 0 .876-.31 1.657-.884 2.25-.588.612-1.4.956-2.25.952-.9 0-1.674-.326-2.274-.961-.576-.61-.867-1.365-.867-2.266 0-.842.326-1.615.927-2.207zm2.214 3.923c.876 0 1.589-.703 1.589-1.7 0-.892-.713-1.605-1.571-1.605-.91 0-1.623.713-1.623 1.606 0 .961.764 1.7 1.605 1.7zm5.944 1.4v-6.104h2.043l1.168 3.735 1.176-3.735h2.034v6.104h-1.425v-4.035l-1.262 4.035h-1.056l-1.261-4.035v4.035h-1.417zm9.532 0v-6.104h3.313v1.348h-1.82v.987h1.82V28.3h-1.82v1.064h1.82v1.348h-3.313zm13.944-2.335h-1.528v2.335h-1.494v-6.104h1.494v2.318h1.528v-2.318h1.502v6.104h-1.502v-2.335zm4.621 2.335v-6.104h1.494v6.104h-1.494zm4.603 0v-6.104h2.026c.644 0 1.133.043 1.545.335.541.378.824.953.824 1.709 0 .987-.515 1.725-1.382 1.965l1.494 2.095h-1.846l-1.167-1.966v1.966h-1.494zm1.786-3.288c.738 0 1.099-.189 1.099-.739 0-.506-.318-.712-.979-.712h-.412v1.45h.292zm5.488 3.288v-6.104h3.313v1.348h-1.82v.987h1.82V28.3h-1.82v1.064h1.82v1.348h-3.313z"/><path fill="#077" d="M112.799.005h24.782l-2.237 3.875h-9.155l-8.44 14.62h-6.684l8.44-14.62h-8.944L112.8.005zm-25.133 0h22.698l-2.231 3.865H91.75l-1.765 3.056h16.384l-2.292 3.97H87.816l-4.39 7.605h-6.439L87.666.005zM78.019 0h6.927l-10.68 18.498H67.34L78.02 0zM42.013.005l-1.942 12.253h.14L52.153.005h6.669l-1.147 12.087h.162L69.758.005h6.131L57.725 18.5h-6.264l.876-12.39-13.23 12.39h-6.096L35.925.005h6.088zM17.321 10.972l-3.433-.283C6.454 10.374 1.995 10.397 5 5.193 8.005-.013 13.986.004 22.053.004c6.974 0 13.3-.017 10.44 4.937l-.435.754h-7.904c1.077-1.866-1.138-1.654-4.431-1.654-4.446 0-5.89.111-6.476 1.127-.839 1.453.327 1.503 2.452 1.6l4.997.355c8.916.386 10.79 1.064 8.385 5.229-1.735 3.006-4.065 6.23-17.648 6.23-7.975 0-13.871-.58-10.431-6.536h7.903c-1.092 1.891.965 2 5 2 3.868 0 5.88.147 6.76-1.377.908-1.573.44-1.552-3.344-1.697z"/><path fill="#B2B2B2" d="M162.647 9.625h-12.83c-1.592-.003-2.09.046-2.571.841l-.417.631c-.432.796-.104 1.286 1.488 1.29h4.694c-.645 1.068-3.078 1.68-6.412 1.68-4.22 0-5.337-.854-4.34-2.595l2.637-4.525c1.049-1.74 2.717-2.549 7.374-2.576 2.836-.017 4.318.276 4.376 1.329.071 1.298-1.385 1.688 1.052 1.691h7.207c1.06-.003 1.28-.105 1.646-1.55.116-.462.117-.954.057-1.352-.385-2.558-4.227-4.456-11.89-4.47-9.805-.017-16.548 2.237-19.039 6.563l-2.63 4.5c-2.48 4.276 1.35 7.32 11.153 7.337 9.805.017 16.383-2.286 18.585-5.802l1.369-2.076c.556-.952.234-.916-1.51-.916M187.97.078c-9.854-.018-16.587 2.41-19.066 6.686l-.38.649 10.447.018 1.32-2.4c.767-1.393 1.924-.724 1.924-.724l7.455 4.318c1.157.67-.742 1.276-.742 1.276l-11.83 3.777c-1.9.607-1.132-.786-1.132-.786l1.782-3.238-10.522-.018-.952 1.629c-2.436 4.301 1.478 7.195 11.282 7.212 9.853.017 16.52-2.336 19.05-6.612l2.58-4.5c2.485-4.302-1.411-7.27-11.216-7.287"/></g></svg>
