<svg xmlns="http://www.w3.org/2000/svg" width="21" height="12" viewBox="0 0 21 12">
  <path fill-rule="evenodd" d="M6.274,15.93 C5.965,15.93 5.668,15.81 5.448,15.593 C5.22913099,15.379467 5.10549481,15.0867773 5.105,14.781 C5.105,14.476 5.229,14.184 5.448,13.97 L13.541,6.019 L5.448,-1.934 C5.22911844,-2.1472628 5.10566855,-2.43990196 5.10566855,-2.7455 C5.10566855,-3.05109804 5.22911844,-3.3437372 5.448,-3.557 C5.90748525,-4.00515428 6.64051475,-4.00515428 7.1,-3.557 L16.018,5.206 C16.2368816,5.4192628 16.3603315,5.71190196 16.3603315,6.0175 C16.3603315,6.32309804 16.2368816,6.6157372 16.018,6.829 L7.1,15.593 C6.88,15.81 6.583,15.931 6.274,15.93 Z" transform="rotate(90 10.733 6.018)"/>
</svg>
