<svg viewBox="0 0 24 24"><path d="M5.1 21.8H3.425c-.888 0-1.413-.531-1.413-1.419V9.6c0-.969.532-1.5 1.5-1.5h3.032c.85 0 1.394.513 1.425 1.338a.92.92 0 0 1 .312-.5c1.738-1.544 3.15-3.313 4.188-5.263.125-.237.319-.531.637-.625.325-.094.638.044.875.175C15.037 3.806 15.47 4.819 15.17 6a12.316 12.316 0 0 1-1.257 3.063h6.4c.832 0 1.476.512 1.638 1.3.181.88-.169 1.625-.919 1.962.344.344.507.831.45 1.419-.056.643-.369 1.106-.906 1.35.463.431.613.981.481 1.681-.131.688-.544 1-1.187 1.169.419.481.525 1.106.3 1.862-.188.631-.769 1.025-1.513 1.025H8.475c-.05 0-.094-.006-.137-.006-.02 0-.044-.006-.075-.006l-.276-.025-.012-.263c-.056.8-.563 1.257-1.413 1.263-.493.006-.975.006-1.462.006zm.181-13.075H3.506c-.625 0-.875.256-.875.875v10.781c0 .532.263.794.794.794 1.106 0 2.106.006 3.125 0 .556 0 .794-.238.794-.781.006-3.681.006-7.338 0-10.869 0-.525-.269-.788-.8-.788-.425-.012-.844-.012-1.263-.012zM8.57 20.219h10.075c.475 0 .806-.213.912-.582.169-.58.1-1-.219-1.325a1.22 1.22 0 0 0-.256-.175 2.616 2.616 0 0 1-.175-.106l-.725-.481.863-.094c1.075-.112 1.3-.343 1.387-.787.125-.663-.081-1.063-.737-1.413l-.869-.469.981-.112c.656-.075.988-.381 1.038-.969.056-.612-.188-1-.732-1.194l-1.03-.368 1.068-.232c.075-.018.15-.03.219-.043.131-.025.262-.044.362-.088.494-.206.713-.675.588-1.275-.1-.494-.494-.8-1.025-.8-1.563-.006-3.157 0-4.694 0h-2.757l.25-.462a1.81 1.81 0 0 0 .094-.175c.056-.1.1-.188.15-.269.543-.944.95-1.931 1.212-2.944.237-.906-.069-1.625-.881-2.068-.232-.132-.344-.138-.394-.12-.05.013-.144.082-.269.32C11.931 6 10.481 7.83 8.681 9.425c-.1.088-.125.144-.125.269.007 2.644.007 5.331.007 7.931v2.569c.006 0 .006.012.006.025z"></path><path d="M14.025 20.844H8.463c-.05 0-.094-.007-.138-.007-.019 0-.044-.006-.075-.006l-.275-.025-.012-.275c0-.037-.007-.069-.007-.106-.006-.081-.006-.156-.006-.244v-2.569c0-2.6 0-5.287-.006-7.924a.9.9 0 0 1 .337-.738c1.738-1.544 3.15-3.313 4.188-5.263.125-.237.319-.53.637-.625.325-.093.638.044.875.175 1.056.582 1.488 1.594 1.188 2.775a12.316 12.316 0 0 1-1.257 3.063h6.4c.832 0 1.476.513 1.638 1.3.181.881-.169 1.625-.919 1.963.344.343.507.83.45 1.418-.056.644-.369 1.107-.906 1.35.463.431.613.982.481 1.681-.131.688-.544 1-1.187 1.17.419.48.525 1.106.3 1.862-.188.631-.769 1.025-1.513 1.025h-4.631zm-5.456-.625h10.075c.475 0 .806-.213.912-.582.169-.58.1-1-.219-1.325a1.22 1.22 0 0 0-.256-.175 2.616 2.616 0 0 1-.175-.106l-.725-.481.863-.094c1.075-.112 1.3-.343 1.387-.787.125-.663-.081-1.063-.737-1.413l-.869-.469.981-.112c.656-.075.988-.381 1.038-.969.056-.612-.188-1-.732-1.194l-1.03-.368 1.068-.232c.075-.018.15-.03.219-.043.131-.025.262-.044.362-.088.494-.206.713-.675.588-1.275-.1-.494-.494-.8-1.025-.8-1.563-.006-3.157 0-4.694 0h-2.756l.25-.462a1.81 1.81 0 0 0 .094-.175c.056-.1.1-.188.15-.269.543-.944.95-1.931 1.212-2.944.237-.906-.069-1.625-.881-2.068-.232-.132-.344-.138-.394-.12-.05.013-.144.082-.269.32C11.931 6 10.481 7.83 8.681 9.425c-.1.088-.125.144-.125.269.007 2.644.007 5.331.007 7.931v2.569c.006 0 .006.012.006.025z"></path><path d="M5.1 21.8H3.425c-.888 0-1.413-.531-1.413-1.419V9.606c0-.968.532-1.5 1.5-1.5h3.032c.875 0 1.425.544 1.425 1.413.006 3.537.006 7.194 0 10.875 0 .894-.519 1.406-1.419 1.406H5.1zm.181-13.075H3.506c-.625 0-.875.256-.875.875v10.775c0 .531.263.794.794.794 1.106 0 2.106.006 3.125 0 .556 0 .794-.238.794-.782.006-3.68.006-7.337 0-10.868 0-.525-.269-.788-.8-.788-.425-.006-.844-.006-1.263-.006z"></path></svg>
