<svg viewBox="0 0 24 24"><path d="M12 22.45A10.445 10.445 0 0 1 1.55 12C1.55 6.225 6.225 1.55 12 1.55c5.775 0 10.45 4.675 10.45 10.45 0 5.775-4.675 10.45-10.45 10.45zm0-20.419C6.5 2.031 2.031 6.5 2.031 12c0 5.5 4.469 9.969 9.969 9.969 5.5 0 9.969-4.469 9.969-9.969 0-5.5-4.469-9.969-9.969-9.969zm1.031 17.806v-.274c.069-4.263 3.025-7.77 6.6-7.77h.206V12c0 3.85-2.75 7.15-6.6 7.769l-.206.069zm6.394-7.562c-3.163.137-5.706 3.231-5.913 7.013 3.37-.757 5.776-3.644 5.913-7.013zm-8.456 7.562l-.275-.068c-3.85-.619-6.6-3.919-6.6-7.769v-.206H4.3c3.575 0 6.531 3.506 6.6 7.768l.069.275zm-6.394-7.562c.137 3.438 2.544 6.325 5.913 7.013-.207-3.85-2.75-6.876-5.913-7.013zM12 13.512A1.526 1.526 0 0 1 10.488 12c0-.825.687-1.512 1.512-1.512s1.512.687 1.512 1.512-.687 1.512-1.512 1.512zm0-2.543c-.55 0-1.031.481-1.031 1.031 0 .55.481 1.031 1.031 1.031.55 0 1.031-.481 1.031-1.031 0-.55-.481-1.031-1.031-1.031zm7.563-1.306H4.438l.137-.344C5.675 6.156 8.7 4.025 12 4.025s6.325 2.131 7.425 5.294l.137.343zM5.124 9.18h13.75C17.706 6.363 15.025 4.575 12 4.575S6.294 6.431 5.125 9.181z"></path></svg>
